<?xml version="1.0" encoding="utf-8"?>
<!-- Generator: Adobe Illustrator 18.0.0, SVG Export Plug-In . SVG Version: 6.00 Build 0)  -->
<!DOCTYPE svg PUBLIC "-//W3C//DTD SVG 1.1//EN" "http://www.w3.org/Graphics/SVG/1.1/DTD/svg11.dtd">
<svg version="1.1" id="Calque_1" xmlns="http://www.w3.org/2000/svg" xmlns:xlink="http://www.w3.org/1999/xlink" x="0px" y="0px"
	 viewBox="0 0 7.4 4.6" enable-background="new 0 0 7.4 4.6" xml:space="preserve">
<path fill="#667D89" d="M4,4.5C3.9,4.6,3.8,4.6,3.7,4.6c-0.1,0-0.2,0-0.3-0.1L0.1,1.3C0,1.2,0,1.1,0,0.9c0-0.1,0-0.2,0.1-0.3
	l0.5-0.5C0.7,0,0.8,0,0.9,0s0.2,0,0.3,0.1l2.4,2.4l2.4-2.4C6.2,0,6.3,0,6.4,0c0.1,0,0.2,0,0.3,0.1l0.5,0.5c0.1,0.1,0.1,0.2,0.1,0.3
	c0,0.1,0,0.2-0.1,0.3L4,4.5L4,4.5z"/>
</svg>
